<?xml version="1.0" encoding="utf-8"?>
<!-- Generator: Adobe Illustrator 23.0.1, SVG Export Plug-In . SVG Version: 6.00 Build 0)  -->
<svg version="1.1" id="Слой_1" xmlns="http://www.w3.org/2000/svg" xmlns:xlink="http://www.w3.org/1999/xlink" x="0px" y="0px"
	 viewBox="0 0 178 98" style="enable-background:new 0 0 178 98;" xml:space="preserve">
<title>Монтажная область 7</title>
<path d="M5.3,6.9v28.3c0,0.5,0.4,0.9,0.9,0.9h29.3c0.5,0,0.9-0.4,0.9-0.9l0,0V6.9c0-0.5-0.4-0.9-0.9-0.9c-0.2,0-0.4,0.1-0.5,0.2
	L21.3,17.5c-0.3,0.3-0.8,0.3-1.1,0L6.7,6.2C6.3,5.9,5.8,6,5.5,6.3C5.4,6.5,5.3,6.7,5.3,6.9z"/>
<path d="M64.1,34.8L50,6.6c-0.2-0.4-0.7-0.6-1.2-0.4c-0.2,0.1-0.3,0.2-0.4,0.4L34.3,34.8c-0.2,0.4,0,1,0.4,1.2
	c0.1,0.1,0.2,0.1,0.4,0.1h28.2c0.5,0,0.9-0.4,0.9-0.9C64.2,35.1,64.2,34.9,64.1,34.8z"/>
<path d="M77.6,5.1H63c-0.5,0-0.9,0.4-0.9,0.8c0,0,0,0,0,0v29.3c0,0.5,0.4,0.9,0.9,0.9l0,0h14.6c8.6,0,15.5-6.9,15.5-15.5
	c0,0,0,0,0,0l0,0C93.2,12,86.2,5,77.6,5.1C77.7,5,77.6,5,77.6,5.1z"/>
<path d="M170.4,20.4c-24.1-12.3-48.2,13.3-72.3,1c-0.6-0.3-0.9-0.8-1-1.5v-10c0-0.5,0.4-0.7,1-0.5c24.1,12.3,48.2-13.3,72.3-1
	c0.6,0.3,0.9,0.8,1,1.5v10C171.4,20.5,171,20.7,170.4,20.4z"/>
<path d="M170.4,43.1c-24.1-12.3-48.2,13.3-72.3,1c-0.6-0.3-0.9-0.8-1-1.5v-10c0-0.5,0.4-0.7,1-0.4c24.1,12.3,48.2-13.3,72.3-1
	c0.6,0.3,0.9,0.8,1,1.5v10C171.4,43.2,171,43.4,170.4,43.1z"/>
<path d="M170.4,66.4c-24.1-12.3-48.2,13.3-72.3,1c-0.6-0.3-0.9-0.8-1-1.5v-10c0-0.5,0.4-0.7,1-0.4c24.1,12.3,48.2-13.3,72.3-1
	c0.6,0.3,0.9,0.8,1,1.5v10C171.4,66.5,171,66.7,170.4,66.4z"/>
<path d="M5.3,41.8v28.3c0,0.5,0.4,0.9,0.8,0.9c0,0,0,0,0,0h29.3c0.5,0,0.9-0.4,0.9-0.9l0,0V41.8c0-0.5-0.4-0.9-0.9-0.9
	c-0.2,0-0.4,0.1-0.5,0.2L21.4,52.4c-0.3,0.3-0.8,0.3-1.1,0L6.7,41.1c-0.4-0.3-0.9-0.3-1.2,0.1C5.4,41.4,5.3,41.6,5.3,41.8z"/>
<path d="M64.1,69.7L50,41.5c-0.2-0.4-0.7-0.6-1.2-0.4c-0.2,0.1-0.3,0.2-0.4,0.4L34.3,69.7c-0.2,0.4,0,0.9,0.4,1.2
	c0.1,0.1,0.2,0.1,0.4,0.1h28.2c0.5,0,0.9-0.4,0.9-0.9C64.2,69.9,64.2,69.8,64.1,69.7z"/>
<path d="M77.7,39.9H63c-0.5,0-0.9,0.4-0.9,0.9v29.3c0,0.5,0.4,0.9,0.9,0.9l0,0h14.7c8.6,0,15.5-6.9,15.5-15.5l0,0
	C93.2,46.9,86.2,39.9,77.7,39.9z"/>
</svg>
