<svg id="Слой_1" data-name="Слой 1" xmlns="http://www.w3.org/2000/svg" viewBox="0 0 178 98"><defs><style>.cls-1{font-size:25.65px;font-family:TitilliumWeb-Regular, Titillium Web;letter-spacing:0.68em;}.cls-2{letter-spacing:0.68em;}.cls-3{letter-spacing:0.68em;}</style></defs><title>Монтажная область 7</title><text class="cls-1" transform="translate(2.54 94.69)">D<tspan class="cls-2" x="33.98" y="0">E</tspan><tspan class="cls-3" x="65.53" y="0">SIGN</tspan></text><path d="M4.34,6.88V35.2a.87.87,0,0,0,.86.86H34.49a.86.86,0,0,0,.86-.86V6.88a.86.86,0,0,0-1.41-.66L20.4,17.51a.87.87,0,0,1-1.1,0L5.76,6.22A.87.87,0,0,0,4.34,6.88Z"/><path d="M63.16,34.81,49.05,6.59a.86.86,0,0,0-1.54,0L33.39,34.81a.87.87,0,0,0,.77,1.25H62.39A.86.86,0,0,0,63.16,34.81Z"/><path d="M76.7,5.05H62.06a.85.85,0,0,0-.86.86V35.2a.86.86,0,0,0,.86.86H76.7A15.51,15.51,0,0,0,92.21,20.55h0A15.5,15.5,0,0,0,76.7,5.05Z"/><path d="M170.77,18.55c-24.5-12.48-49,13.52-73.51,1a1.89,1.89,0,0,1-1-1.48V7.87c0-.54.44-.73,1-.46,24.51,12.49,49-13.51,73.51-1a1.88,1.88,0,0,1,1,1.49V18.1C171.74,18.63,171.31,18.82,170.77,18.55Z"/><path d="M170.77,41.61c-24.5-12.49-49,13.51-73.51,1a1.91,1.91,0,0,1-1-1.49V30.92c0-.53.44-.73,1-.45,24.51,12.48,49-13.52,73.51-1a1.87,1.87,0,0,1,1,1.48V41.15C171.74,41.69,171.31,41.88,170.77,41.61Z"/><path d="M170.77,65.32c-24.5-12.48-49,13.52-73.51,1a1.87,1.87,0,0,1-1-1.48V54.64c0-.53.44-.73,1-.45,24.51,12.48,49-13.52,73.51-1a1.87,1.87,0,0,1,1,1.48V64.87C171.74,65.41,171.31,65.6,170.77,65.32Z"/><path d="M5.08,41.77V70.08a.85.85,0,0,0,.86.86H35.23a.86.86,0,0,0,.86-.86V41.77a.86.86,0,0,0-1.41-.66L21.14,52.4a.89.89,0,0,1-1.11,0L6.49,41.11A.86.86,0,0,0,5.08,41.77Z"/><path d="M63.89,69.7,49.78,41.47a.86.86,0,0,0-1.54,0L34.13,69.7a.86.86,0,0,0,.77,1.24H63.12A.86.86,0,0,0,63.89,69.7Z"/><path d="M77.44,39.93H62.79a.87.87,0,0,0-.86.86V70.08a.86.86,0,0,0,.86.86H77.44a15.5,15.5,0,0,0,15.5-15.5h0A15.51,15.51,0,0,0,77.44,39.93Z"/></svg>