<?xml version="1.0" encoding="utf-8"?>
<!-- Generator: Adobe Illustrator 23.0.1, SVG Export Plug-In . SVG Version: 6.00 Build 0)  -->
<svg version="1.1" id="Слой_1" xmlns="http://www.w3.org/2000/svg" xmlns:xlink="http://www.w3.org/1999/xlink" x="0px" y="0px"
	 viewBox="0 0 178 98" style="enable-background:new 0 0 178 98;" xml:space="preserve">
<title>Монтажная область 7</title>
<path d="M4.3,6.9v28.3c0,0.5,0.4,0.9,0.9,0.9h29.3c0.5,0,0.9-0.4,0.9-0.9l0,0V6.9C35.3,6.4,35,6,34.5,6c-0.2,0-0.4,0.1-0.5,0.2
	L20.4,17.5c-0.3,0.3-0.8,0.3-1.1,0L5.8,6.2C5.4,5.9,4.8,6,4.5,6.3C4.4,6.5,4.3,6.7,4.3,6.9z"/>
<path d="M63.2,34.8L49,6.6c-0.2-0.4-0.7-0.6-1.2-0.4c-0.2,0.1-0.3,0.2-0.4,0.4L33.4,34.8c-0.2,0.4,0,1,0.4,1.2
	c0.1,0.1,0.2,0.1,0.4,0.1h28.2c0.5,0,0.9-0.4,0.9-0.9C63.3,35.1,63.2,34.9,63.2,34.8z"/>
<path d="M76.7,5.1H62.1c-0.5,0-0.9,0.4-0.9,0.8c0,0,0,0,0,0v29.3c0,0.5,0.4,0.9,0.9,0.9l0,0h14.6c8.6,0,15.5-6.9,15.5-15.5
	c0,0,0,0,0,0l0,0C92.2,12,85.3,5,76.7,5.1C76.7,5,76.7,5,76.7,5.1z"/>
<path d="M170.8,18.5c-24.5-12.5-49,13.5-73.5,1c-0.6-0.3-0.9-0.9-1-1.5V7.9c0-0.5,0.4-0.7,1-0.5c24.5,12.5,49-13.5,73.5-1
	c0.6,0.3,0.9,0.9,1,1.5v10.2C171.7,18.6,171.3,18.8,170.8,18.5z"/>
<path d="M170.8,41.6c-24.5-12.5-49,13.5-73.5,1c-0.6-0.3-0.9-0.9-1-1.5V30.9c0-0.5,0.4-0.7,1-0.5c24.5,12.5,49-13.5,73.5-1
	c0.6,0.3,0.9,0.8,1,1.5v10.2C171.7,41.7,171.3,41.9,170.8,41.6z"/>
<path d="M170.8,65.3c-24.5-12.5-49,13.5-73.5,1c-0.6-0.3-0.9-0.8-1-1.5V54.6c0-0.5,0.4-0.7,1-0.5c24.5,12.5,49-13.5,73.5-1
	c0.6,0.3,0.9,0.8,1,1.5v10.2C171.7,65.4,171.3,65.6,170.8,65.3z"/>
<path d="M5.1,41.8v28.3c0,0.5,0.4,0.9,0.8,0.9c0,0,0,0,0,0h29.3c0.5,0,0.9-0.4,0.9-0.9l0,0V41.8c0-0.5-0.4-0.9-0.9-0.9
	c-0.2,0-0.4,0.1-0.5,0.2L21.1,52.4c-0.3,0.3-0.8,0.3-1.1,0L6.5,41.1c-0.4-0.3-0.9-0.3-1.2,0.1C5.2,41.4,5.1,41.6,5.1,41.8z"/>
<path d="M63.9,69.7L49.8,41.5c-0.2-0.4-0.7-0.6-1.2-0.4c-0.2,0.1-0.3,0.2-0.4,0.4L34.1,69.7c-0.2,0.4,0,0.9,0.4,1.2
	c0.1,0.1,0.2,0.1,0.4,0.1h28.2c0.5,0,0.9-0.4,0.9-0.9C64,69.9,63.9,69.8,63.9,69.7z"/>
<path d="M77.4,39.9H62.8c-0.5,0-0.9,0.4-0.9,0.9v29.3c0,0.5,0.4,0.9,0.9,0.9l0,0h14.7c8.6,0,15.5-6.9,15.5-15.5l0,0
	C92.9,46.9,86,39.9,77.4,39.9z"/>
</svg>
